<?xml version="1.0" encoding="utf-8"?>
<!-- Generator: Adobe Illustrator 26.4.1, SVG Export Plug-In . SVG Version: 6.00 Build 0)  -->
<svg version="1.1" id="Слой_1" xmlns="http://www.w3.org/2000/svg" xmlns:xlink="http://www.w3.org/1999/xlink" x="0px" y="0px"
	 viewBox="0 0 166 128" style="enable-background:new 0 0 166 128;" xml:space="preserve">
<style type="text/css">
	.st0{fill-opacity:0.9;stroke:#866251;stroke-miterlimit:10;}
	.st1{stroke:#866251;stroke-miterlimit:10;}
</style>
<path class="st0" d="M140.1,11.1c-10.7-4.9-22-8.5-33.7-10.5c-0.2,0-0.4,0.1-0.5,0.3c-1.4,2.6-3.1,6-4.2,8.6
	c-12.7-1.9-25.4-1.9-37.8,0c-1.1-2.7-2.8-6.1-4.3-8.6c-0.1-0.2-0.3-0.3-0.5-0.3c-11.6,2-23,5.5-33.7,10.5c-0.1,0-0.2,0.1-0.2,0.2
	C3.7,43.5-2.2,74.8,0.7,105.8c0,0.1,0.1,0.3,0.2,0.4c14.1,10.4,27.9,16.8,41.3,20.9c0.2,0.1,0.4,0,0.6-0.2c3.2-4.4,6-9,8.5-13.8
	c0.1-0.3,0-0.6-0.2-0.7c0,0,0,0,0,0c-4.5-1.7-8.8-3.8-12.9-6.2c-0.3-0.2-0.3-0.7,0-0.9c0.9-0.7,1.7-1.3,2.6-2
	c0.1-0.1,0.3-0.1,0.5-0.1c27.1,12.4,56.4,12.4,83.2,0c0.2-0.1,0.4-0.1,0.5,0.1c0.8,0.7,1.7,1.4,2.6,2c0.3,0.2,0.3,0.7,0,0.9
	c-4.1,2.4-8.4,4.5-12.9,6.2c-0.3,0.1-0.4,0.4-0.3,0.7c2.5,4.8,5.3,9.4,8.4,13.8c0.1,0.2,0.4,0.3,0.6,0.2
	c13.5-4.2,27.2-10.5,41.4-20.9c0.1-0.1,0.2-0.2,0.2-0.4c3.4-35.8-5.8-66.9-24.5-94.4C140.3,11.3,140.2,11.2,140.1,11.1L140.1,11.1
	L140.1,11.1z M55.3,86.9c-8.2,0-14.9-7.5-14.9-16.7S47,53.5,55.3,53.5s15,7.6,14.9,16.7C70.2,79.4,63.6,86.9,55.3,86.9z M110.3,86.9
	c-8.2,0-14.9-7.5-14.9-16.7s6.6-16.7,14.9-16.7c8.3,0,15,7.6,14.9,16.7C125.2,79.4,118.6,86.9,110.3,86.9z"/>
<path class="st1" d="M-371-83"/>
</svg>
