<?xml version="1.0" encoding="utf-8"?>
<!-- Generator: Adobe Illustrator 26.4.1, SVG Export Plug-In . SVG Version: 6.00 Build 0)  -->
<svg version="1.1" id="Слой_1" xmlns="http://www.w3.org/2000/svg" xmlns:xlink="http://www.w3.org/1999/xlink" x="0px" y="0px"
	 viewBox="0 0 164 132" style="enable-background:new 0 0 164 132;" xml:space="preserve">
<style type="text/css">
	.st0{fill:#040300;fill-opacity:0.9;}
</style>
<path class="st0" d="M163.5,15.6c-6.1,2.7-12.6,4.5-19.2,5.2c6.9-4.1,12.2-10.7,14.7-18.4c-6.6,3.9-13.7,6.6-21.2,8.1
	C131.4,3.8,122.6,0,113.3,0C94.9,0,79.9,14.9,79.9,33.3c0,2.6,0.3,5.2,0.9,7.6C53,39.5,28.3,26.3,11.8,6.1c-3,5.1-4.5,10.9-4.5,16.8
	c0,11.6,5.9,21.8,14.9,27.7C16.9,50.4,11.7,49,7,46.4v0.4C7,63,18.6,76.4,33.8,79.5c-4.9,1.3-10.1,1.5-15.1,0.6
	C23,93.3,35.4,102.9,50,103.2c-11.4,8.9-25.9,14.3-41.5,14.3c-2.7,0-5.4-0.2-8-0.5c14.8,9.5,32.4,15,51.3,15
	c61.5,0,95.1-50.8,95.1-94.8c0-1.4,0-2.9-0.1-4.3C153.3,28.2,159,22.3,163.5,15.6L163.5,15.6z"/>
</svg>
